HIERARCHY
ROOT Hips
{
	OFFSET 0.000000 0.000000 0.000000 
	CHANNELS 6 Xposition Yposition Zposition Zrotation Yrotation Xrotation
	JOINT LeftUpLeg
	{
		OFFSET 1.363060 -1.794630 0.839290 
		CHANNELS 3 Zrotation Yrotation Xrotation
		JOINT LeftLeg
		{
			OFFSET 2.448110 -6.726130 0.000000 
			CHANNELS 3 Zrotation Yrotation Xrotation
			JOINT LeftFoot
			{
				OFFSET 2.562200 -7.039590 0.000000 
				CHANNELS 3 Zrotation Yrotation Xrotation
				JOINT LeftToeBase
				{
					OFFSET 0.157640 -0.433110 2.322550 
					CHANNELS 3 Zrotation Yrotation Xrotation
					End Site
					{
						OFFSET 0.000000 0.000000 0.000000 
					}
				}
			}
		}
	}
	JOINT RightUpLeg
	{
		OFFSET -1.305520 -1.794630 0.839290 
		CHANNELS 3 Zrotation Yrotation Xrotation
		JOINT RightLeg
		{
			OFFSET -2.542530 -6.985550 0.000000 
			CHANNELS 3 Zrotation Yrotation Xrotation
			JOINT RightFoot
			{
				OFFSET -2.568260 -7.056230 0.000000 
				CHANNELS 3 Zrotation Yrotation Xrotation
				JOINT RightToeBase
				{
					OFFSET -0.164730 -0.452590 2.363150 
					CHANNELS 3 Zrotation Yrotation Xrotation
					End Site
					{
						OFFSET 0.000000 0.000000 0.000000 
					}
				}
			}
		}
	}
	JOINT Spine
	{
		OFFSET 0.028270 2.035590 -0.193380 
		CHANNELS 3 Zrotation Yrotation Xrotation
		JOINT Spine1
		{
			OFFSET 0.056720 2.048850 -0.042750 
			CHANNELS 3 Zrotation Yrotation Xrotation
			JOINT Neck1
			{
				OFFSET -0.054170 1.746240 0.172020 
				CHANNELS 3 Zrotation Yrotation Xrotation
				JOINT Head
				{
					OFFSET 0.104070 1.761360 -0.123970 
					CHANNELS 3 Zrotation Yrotation Xrotation
					End Site
					{
						OFFSET 0.000000 0.000000 0.000000 
					}
				}
			}
			JOINT LeftArm
			{
				OFFSET 3.362410 1.200890 -0.311210 
				CHANNELS 3 Zrotation Yrotation Xrotation
				JOINT LeftForeArm
				{
					OFFSET 4.983000 -0.000000 -0.000000 
					CHANNELS 3 Zrotation Yrotation Xrotation
					JOINT LeftHand
					{
						OFFSET 3.483560 -0.000000 -0.000000 
						CHANNELS 3 Zrotation Yrotation Xrotation
						JOINT LeftHandIndex1
						{
							OFFSET 0.715260 -0.000000 -0.000000 
							CHANNELS 3 Zrotation Yrotation Xrotation
							End Site
							{
								OFFSET 0.000000 0.000000 0.000000 
							}
						}
					}
				}
			}
			JOINT RightArm
			{
				OFFSET -3.136600 1.374050 -0.404650 
				CHANNELS 3 Zrotation Yrotation Xrotation
				JOINT RightForeArm
				{
					OFFSET -5.241900 -0.000000 -0.000000 
					CHANNELS 3 Zrotation Yrotation Xrotation
					JOINT RightHand
					{
						OFFSET -3.444170 -0.000000 -0.000000 
						CHANNELS 3 Zrotation Yrotation Xrotation
						JOINT RightHandIndex1
						{
							OFFSET -0.622530 -0.000000 -0.000000 
							CHANNELS 3 Zrotation Yrotation Xrotation
							End Site
							{
								OFFSET 0.000000 0.000000 0.000000 
							}
						}
					}
				}
			}
		}
	}
}
MOTION
Frames: 9
Frame Time: 0.041667
48.429874 17.126950 -5.952317 -146.083666 -85.630713 149.756314 -27.675635 10.133775 2.878286 -0.412956 1.830217 7.245976 -0.219021 7.892897 -15.861045 0.013300 0.745200 2.048000 28.312279 15.781855 -31.726057 -4.856463 -14.084513 39.848596 -0.679982 -6.629772 -21.759458 -0.333800 -3.712900 10.270200 0.634835 -1.102694 -1.559632 0.799169 -0.894760 3.545445 6.219480 -1.663654 -1.857106 2.075400 -0.774200 -0.430100 -78.077357 -9.762437 34.446303 14.908353 -22.484696 -3.927410 -1.333267 -0.534649 -10.668852 -7.125000 0.000000 0.000000 76.126263 -5.096402 18.396761 -11.915735 21.420338 -2.892140 0.363850 -0.690198 -3.041080 7.125000 0.000000 0.000000 
48.382383 17.130028 -5.950983 -145.814715 -85.636217 149.564449 -27.614337 10.476284 3.547063 -0.470053 1.406707 6.145070 -0.273132 7.996350 -15.445320 0.013200 0.743100 2.042100 28.320328 15.891647 -31.761196 -4.595811 -13.765222 38.670939 -0.659979 -6.508914 -21.445887 -0.322100 -3.647800 10.087900 0.637480 -1.116838 -1.563410 0.789958 -0.901218 3.535318 6.179223 -1.636361 -1.938968 2.041700 -0.767600 -0.476200 -78.110525 -9.769575 34.775187 14.918124 -22.491387 -3.921391 -1.328285 -0.532323 -10.614151 -7.125000 0.000000 0.000000 76.176073 -5.186023 18.252067 -11.826847 21.315973 -2.864578 0.365674 -0.690525 -2.969329 7.125000 0.000000 0.000000 
48.333765 17.132592 -5.949855 -145.606315 -85.649916 149.431849 -27.539453 10.864031 4.350067 -0.529758 0.895580 4.818003 -0.343117 8.154376 -14.932955 0.013200 0.741500 2.037800 28.315262 16.001347 -31.788448 -4.349083 -13.449674 37.528195 -0.641365 -6.337218 -21.092555 -0.305000 -3.550500 9.815500 0.639731 -1.132193 -1.567963 0.779353 -0.908288 3.522317 6.143161 -1.609932 -2.018314 2.010700 -0.761200 -0.519100 -78.153155 -9.772133 35.066652 14.909264 -22.476211 -3.906920 -1.321302 -0.525483 -10.534494 -7.125000 0.000000 0.000000 76.224892 -5.275808 18.125565 -11.745007 21.219745 -2.839051 0.367546 -0.690698 -2.915412 7.125000 0.000000 0.000000 
48.283812 17.134336 -5.949035 -145.478784 -85.672603 149.367936 -27.428827 11.363942 5.466693 -0.596913 0.172550 2.941704 -0.452245 8.445782 -14.180093 0.013000 0.735400 2.021000 28.298007 16.112537 -31.810265 -4.117769 -13.141396 36.430815 -0.624569 -6.113495 -20.702466 -0.283400 -3.423700 9.460700 0.641086 -1.147463 -1.573314 0.765600 -0.915500 3.508207 6.113166 -1.588539 -2.090702 1.984200 -0.756400 -0.555000 -78.203271 -9.767136 35.326031 14.881365 -22.439176 -3.884250 -1.312956 -0.513507 -10.439538 -7.125000 0.000000 0.000000 76.276490 -5.366114 18.010831 -11.671586 21.133226 -2.815984 0.369399 -0.690496 -2.870952 7.125000 0.000000 0.000000 
48.232629 17.135156 -5.948727 -145.462885 -85.708681 149.422038 -27.264337 12.021110 7.032141 -0.657342 -0.853600 0.279437 -0.614363 8.930679 -13.083664 0.012500 0.722900 1.986600 28.262502 16.226959 -31.828653 -3.903417 -12.844123 35.388999 -0.610415 -5.840669 -20.288043 -0.257500 -3.264800 9.017000 0.641743 -1.164368 -1.580209 0.754103 -0.923970 3.490552 6.088637 -1.566551 -2.151292 1.964000 -0.750200 -0.581900 -78.263097 -9.745825 35.557718 14.836915 -22.385312 -3.856768 -1.305983 -0.499482 -10.339372 -7.125000 0.000000 0.000000 76.328060 -5.461949 17.912645 -11.604472 21.054154 -2.794790 0.370632 -0.690335 -2.838263 7.125000 0.000000 0.000000 
48.180113 17.134951 -5.949035 -145.613787 -85.747641 149.651097 -27.270234 12.124360 7.128250 -0.657568 -0.856171 0.282998 -0.583357 8.773610 -13.174496 0.011800 0.700400 1.924900 28.202557 16.354577 -31.844590 -3.706947 -12.562155 34.412827 -0.601177 -5.519676 -19.876225 -0.230400 -3.089600 8.528200 0.640988 -1.178744 -1.587083 0.748534 -0.930332 3.475955 6.070253 -1.548514 -2.204504 1.950900 -0.744700 -0.602800 -78.331903 -9.715505 35.771445 14.772276 -22.311701 -3.824111 -1.302260 -0.485774 -10.244137 -7.125000 0.000000 0.000000 76.379775 -5.556660 17.823099 -11.545239 20.984105 -2.775704 0.371874 -0.689820 -2.808579 7.125000 0.000000 0.000000 
48.126160 17.133618 -5.950163 -145.934399 -85.794176 150.030094 -27.284933 12.229796 7.231538 -0.657836 -0.858751 0.286561 -0.552334 8.616020 -13.265440 0.010700 0.669100 1.838800 28.120264 16.510853 -31.851535 -3.529210 -12.298553 33.510169 -0.595925 -5.186379 -19.496039 -0.202100 -2.894900 7.986300 0.639126 -1.189587 -1.594179 0.747354 -0.935328 3.462642 6.057016 -1.534417 -2.248416 1.943600 -0.740000 -0.616400 -78.408036 -9.673800 35.968022 14.687826 -22.218743 -3.786452 -1.301817 -0.473044 -10.158405 -7.125000 0.000000 0.000000 76.432924 -5.650593 17.740301 -11.491482 20.920252 -2.758279 0.372757 -0.689215 -2.785754 7.125000 0.000000 0.000000 
48.070669 17.131156 -5.952214 -146.524442 -85.850875 150.698988 -27.315824 12.337492 7.337953 -0.658156 -0.861123 0.289974 -0.522091 8.462357 -13.353614 0.009300 0.623700 1.714000 28.004538 16.710505 -31.850265 -3.370495 -12.056288 32.688156 -0.595135 -4.845365 -19.159945 -0.179000 -2.725100 7.514200 0.635658 -1.194996 -1.601719 0.752137 -0.938194 3.449125 6.046148 -1.524625 -2.285592 1.939700 -0.736700 -0.626300 -78.492527 -9.618477 36.141155 14.583768 -22.105970 -3.742471 -1.302205 -0.459256 -10.077053 -7.125000 0.000000 0.000000 76.488795 -5.748859 17.658627 -11.443743 20.863157 -2.742703 0.372839 -0.688805 -2.757476 7.125000 0.000000 0.000000 
48.013845 17.127668 -5.954984 -147.253861 -85.913313 151.488154 -27.352151 12.446763 7.451166 -0.658500 -0.863525 0.293396 -0.491989 8.308709 -13.440058 0.007800 0.568800 1.563000 27.863103 16.959240 -31.835675 -3.230756 -11.837734 31.951294 -0.596658 -4.532336 -18.880486 -0.159300 -2.571300 7.087500 0.630971 -1.194341 -1.608577 0.757441 -0.938150 3.437145 6.040768 -1.519721 -2.325189 1.941200 -0.735100 -0.638200 -78.582322 -9.560238 36.288911 14.462476 -21.974586 -3.693083 -1.303389 -0.447065 -9.987993 -7.125000 0.000000 0.000000 76.547980 -5.843580 17.573570 -11.404876 20.816278 -2.729767 0.373141 -0.688000 -2.725336 7.125000 0.000000 0.000000 
